<svg xmlns="http://www.w3.org/2000/svg" width="512" height="512" id="sushi">
  <path fill="#F8CC00" d="M145.835 410.243v21.121c0 11.046-8.954 20-20 20H95.333c-11.046 0-20-8.954-20-20v-21.121h70.502z"></path>
  <path fill="#F8CC00" d="M125.835 453.364H95.333c-12.131 0-22-9.869-22-22v-21.121a2 2 0 0 1 2-2h70.502a2 2 0 0 1 2 2v21.121c0 12.131-9.869 22-22 22zm-48.502-41.121v19.121c0 9.925 8.075 18 18 18h30.502c9.925 0 18-8.075 18-18v-19.121H77.333zm359.603-2v21.121c0 11.046-8.954 20-20 20h-30.502c-11.046 0-20-8.954-20-20v-21.121h70.502z"></path>
  <path fill="#F8CC00" d="M416.936 453.364h-30.502c-12.131 0-22-9.869-22-22v-21.121a2 2 0 0 1 2-2h70.502a2 2 0 0 1 2 2v21.121c0 12.131-9.869 22-22 22zm-48.502-41.121v19.121c0 9.925 8.075 18 18 18h30.502c9.925 0 18-8.075 18-18v-19.121h-66.502z"></path>
  <path fill="red" d="M498.337 390.243c0 11.046-8.954 20-20 20h-445c-11.046 0-20-8.954-20-20v-14.521c0-11.046 8.954-20 20-20h445c11.046 0 20 8.954 20 20v14.521z"></path>
  <path fill="#AA0909" d="M478.337 412.243h-445c-12.131 0-22-9.869-22-22v-14.521c0-12.131 9.869-22 22-22h445c12.131 0 22 9.869 22 22v14.521c0 12.131-9.869 22-22 22zm-445-54.521c-9.925 0-18 8.075-18 18v14.521c0 9.925 8.075 18 18 18h445c9.925 0 18-8.075 18-18v-14.521c0-9.925-8.075-18-18-18h-445z"></path>
  <path fill="#F8CC00" d="M479.137 304.372c0 27.614-22.386 50-50 50H382.93c-27.614 0-50-22.386-50-50v-46.207c0-27.614 22.386-50 50-50h46.207c27.614 0 50 22.386 50 50v46.207z"></path>
  <path fill="#F8CC00" d="M429.137 356.372H382.93c-28.673 0-52-23.327-52-52v-46.207c0-28.673 23.327-52 52-52h46.207c28.673 0 52 23.327 52 52v46.207c0 28.673-23.327 52-52 52zM382.93 210.165c-26.467 0-48 21.532-48 48v46.207c0 26.468 21.533 48 48 48h46.207c26.467 0 48-21.532 48-48v-46.207c0-26.468-21.533-48-48-48H382.93z"></path>
  <path fill="#FFF" d="M468.456 300.902c0 23.579-19.115 42.694-42.694 42.694h-39.455c-23.58 0-42.694-19.115-42.694-42.694v-39.455c0-23.579 19.115-42.694 42.694-42.694h39.455c23.58 0 42.694 19.115 42.694 42.694v39.455z"></path>
  <path fill="#AA0909" d="M425.761 345.597h-39.455c-24.645 0-44.694-20.05-44.694-44.694v-39.455c0-24.645 20.05-44.694 44.694-44.694h39.455c24.645 0 44.694 20.05 44.694 44.694v39.455c.001 24.644-20.049 44.694-44.694 44.694zm-39.455-124.844c-22.439 0-40.694 18.256-40.694 40.694v39.455c0 22.438 18.255 40.694 40.694 40.694h39.455c22.439 0 40.694-18.256 40.694-40.694v-39.455c0-22.438-18.255-40.694-40.694-40.694h-39.455z"></path>
  <circle cx="386.519" cy="281.174" r="9.758" fill="red"></circle>
  <path fill="#AA0909" d="M386.519 292.932c-6.483 0-11.757-5.274-11.757-11.758 0-6.482 5.274-11.757 11.757-11.757s11.758 5.274 11.758 11.757-5.275 11.758-11.758 11.758zm0-19.515c-4.277 0-7.757 3.479-7.757 7.757s3.48 7.758 7.757 7.758c4.278 0 7.758-3.48 7.758-7.758s-3.48-7.757-7.758-7.757z"></path>
  <circle cx="367.004" cy="281.174" r="9.758" fill="red"></circle>
  <path fill="#AA0909" d="M367.004 292.932c-6.483 0-11.757-5.274-11.757-11.758 0-6.482 5.274-11.757 11.757-11.757s11.758 5.274 11.758 11.757-5.275 11.758-11.758 11.758zm0-19.515c-4.277 0-7.757 3.479-7.757 7.757s3.48 7.758 7.757 7.758c4.278 0 7.758-3.48 7.758-7.758s-3.48-7.757-7.758-7.757z"></path>
  <circle cx="406.034" cy="281.174" r="9.757" fill="red"></circle>
  <path fill="#AA0909" d="M406.034 292.932c-6.483 0-11.757-5.274-11.757-11.758 0-6.482 5.274-11.757 11.757-11.757s11.757 5.274 11.757 11.757-5.274 11.758-11.757 11.758zm0-19.515c-4.277 0-7.757 3.479-7.757 7.757s3.479 7.758 7.757 7.758 7.757-3.48 7.757-7.758-3.48-7.757-7.757-7.757z"></path>
  <circle cx="425.548" cy="281.174" r="9.758" fill="red"></circle>
  <path fill="#AA0909" d="M425.548 292.932c-6.483 0-11.758-5.274-11.758-11.758 0-6.482 5.274-11.757 11.758-11.757 6.483 0 11.757 5.274 11.757 11.757.001 6.483-5.274 11.758-11.757 11.758zm0-19.515c-4.278 0-7.758 3.479-7.758 7.757s3.48 7.758 7.758 7.758c4.277 0 7.757-3.48 7.757-7.758s-3.479-7.757-7.757-7.757z"></path>
  <circle cx="445.063" cy="281.174" r="9.758" fill="red"></circle>
  <path fill="#AA0909" d="M445.063 292.932c-6.483 0-11.758-5.274-11.758-11.758 0-6.482 5.274-11.757 11.758-11.757 6.483 0 11.757 5.274 11.757 11.757.001 6.483-5.274 11.758-11.757 11.758zm0-19.515c-4.278 0-7.758 3.479-7.758 7.757s3.48 7.758 7.758 7.758c4.277 0 7.757-3.48 7.757-7.758s-3.479-7.757-7.757-7.757z"></path>
  <circle cx="386.519" cy="247.558" r="9.758" fill="red"></circle>
  <path fill="#AA0909" d="M386.519 259.314c-6.483 0-11.757-5.274-11.757-11.757s5.274-11.758 11.757-11.758 11.758 5.274 11.758 11.758c0 6.483-5.275 11.757-11.758 11.757zm0-19.514c-4.277 0-7.757 3.48-7.757 7.758s3.48 7.757 7.757 7.757c4.278 0 7.758-3.479 7.758-7.757s-3.48-7.758-7.758-7.758z"></path>
  <circle cx="406.034" cy="247.558" r="9.757" fill="red"></circle>
  <path fill="#AA0909" d="M406.034 259.314c-6.483 0-11.757-5.274-11.757-11.757s5.274-11.758 11.757-11.758 11.757 5.274 11.757 11.758c0 6.483-5.274 11.757-11.757 11.757zm0-19.514c-4.277 0-7.757 3.48-7.757 7.758s3.479 7.757 7.757 7.757 7.757-3.479 7.757-7.757-3.48-7.758-7.757-7.758z"></path>
  <circle cx="425.548" cy="247.558" r="9.758" fill="red"></circle>
  <path fill="#AA0909" d="M425.548 259.314c-6.483 0-11.758-5.274-11.758-11.757s5.274-11.758 11.758-11.758c6.483 0 11.757 5.274 11.757 11.758.001 6.483-5.274 11.757-11.757 11.757zm0-19.514c-4.278 0-7.758 3.48-7.758 7.758s3.48 7.757 7.758 7.757c4.277 0 7.757-3.479 7.757-7.757s-3.479-7.758-7.757-7.758z"></path>
  <circle cx="386.519" cy="314.979" r="9.758" fill="red"></circle>
  <path fill="#AA0909" d="M386.519 326.737c-6.483 0-11.757-5.274-11.757-11.758 0-6.482 5.274-11.757 11.757-11.757s11.758 5.274 11.758 11.757c0 6.484-5.275 11.758-11.758 11.758zm0-19.514c-4.277 0-7.757 3.479-7.757 7.757s3.48 7.758 7.757 7.758c4.278 0 7.758-3.48 7.758-7.758s-3.48-7.757-7.758-7.757z"></path>
  <circle cx="406.034" cy="314.979" r="9.757" fill="red"></circle>
  <path fill="#AA0909" d="M406.034 326.737c-6.483 0-11.757-5.274-11.757-11.758 0-6.482 5.274-11.757 11.757-11.757s11.757 5.274 11.757 11.757c0 6.484-5.274 11.758-11.757 11.758zm0-19.514c-4.277 0-7.757 3.479-7.757 7.757s3.479 7.758 7.757 7.758 7.757-3.48 7.757-7.758-3.48-7.757-7.757-7.757z"></path>
  <circle cx="425.548" cy="314.979" r="9.758" fill="red"></circle>
  <path fill="#AA0909" d="M425.548 326.737c-6.483 0-11.758-5.274-11.758-11.758 0-6.482 5.274-11.757 11.758-11.757 6.483 0 11.757 5.274 11.757 11.757.001 6.484-5.274 11.758-11.757 11.758zm0-19.514c-4.278 0-7.758 3.479-7.758 7.757s3.48 7.758 7.758 7.758c4.277 0 7.757-3.48 7.757-7.758s-3.479-7.757-7.757-7.757z"></path>
  <circle cx="376.762" cy="298.049" r="9.757" fill="red"></circle>
  <path fill="#AA0909" d="M376.762 309.806c-6.483 0-11.757-5.274-11.757-11.757s5.274-11.758 11.757-11.758 11.757 5.274 11.757 11.758c0 6.482-5.274 11.757-11.757 11.757zm0-19.515c-4.277 0-7.757 3.48-7.757 7.758s3.48 7.757 7.757 7.757 7.757-3.479 7.757-7.757-3.48-7.758-7.757-7.758z"></path>
  <circle cx="435.306" cy="298.049" r="9.757" fill="red"></circle>
  <path fill="#AA0909" d="M435.306 309.806c-6.483 0-11.757-5.274-11.757-11.757s5.274-11.758 11.757-11.758 11.757 5.274 11.757 11.758c0 6.482-5.274 11.757-11.757 11.757zm0-19.515c-4.277 0-7.757 3.48-7.757 7.758s3.48 7.757 7.757 7.757 7.757-3.479 7.757-7.757-3.48-7.758-7.757-7.758z"></path>
  <circle cx="396.276" cy="298.049" r="9.757" fill="red"></circle>
  <path fill="#AA0909" d="M396.277 309.806c-6.483 0-11.758-5.274-11.758-11.757s5.274-11.758 11.758-11.758c6.483 0 11.757 5.274 11.757 11.758 0 6.482-5.274 11.757-11.757 11.757zm0-19.515c-4.278 0-7.758 3.48-7.758 7.758s3.48 7.757 7.758 7.757c4.277 0 7.757-3.479 7.757-7.757s-3.48-7.758-7.757-7.758z"></path>
  <circle cx="415.791" cy="298.049" r="9.757" fill="red"></circle>
  <path fill="#AA0909" d="M415.791 309.806c-6.483 0-11.757-5.274-11.757-11.757s5.274-11.758 11.757-11.758 11.758 5.274 11.758 11.758c-.001 6.482-5.275 11.757-11.758 11.757zm0-19.515c-4.277 0-7.757 3.48-7.757 7.758s3.479 7.757 7.757 7.757 7.758-3.479 7.758-7.757-3.481-7.758-7.758-7.758z"></path>
  <circle cx="376.762" cy="264.431" r="9.757" fill="red"></circle>
  <path fill="#AA0909" d="M376.762 276.188c-6.483 0-11.757-5.274-11.757-11.758 0-6.482 5.274-11.757 11.757-11.757s11.757 5.274 11.757 11.757c0 6.484-5.274 11.758-11.757 11.758zm0-19.514c-4.277 0-7.757 3.479-7.757 7.757s3.48 7.758 7.757 7.758 7.757-3.48 7.757-7.758-3.48-7.757-7.757-7.757z"></path>
  <circle cx="435.306" cy="264.431" r="9.757" fill="red"></circle>
  <path fill="#AA0909" d="M435.306 276.188c-6.483 0-11.757-5.274-11.757-11.758 0-6.482 5.274-11.757 11.757-11.757s11.757 5.274 11.757 11.757c0 6.484-5.274 11.758-11.757 11.758zm0-19.514c-4.277 0-7.757 3.479-7.757 7.757s3.48 7.758 7.757 7.758 7.757-3.48 7.757-7.758-3.48-7.757-7.757-7.757z"></path>
  <circle cx="396.276" cy="264.431" r="9.757" fill="red"></circle>
  <path fill="#AA0909" d="M396.277 276.188c-6.483 0-11.758-5.274-11.758-11.758 0-6.482 5.274-11.757 11.758-11.757 6.483 0 11.757 5.274 11.757 11.757 0 6.484-5.274 11.758-11.757 11.758zm0-19.514c-4.278 0-7.758 3.479-7.758 7.757s3.48 7.758 7.758 7.758c4.277 0 7.757-3.48 7.757-7.758s-3.48-7.757-7.757-7.757z"></path>
  <circle cx="415.791" cy="264.431" r="9.757" fill="red"></circle>
  <path fill="#AA0909" d="M415.791 276.188c-6.483 0-11.757-5.274-11.757-11.758 0-6.482 5.274-11.757 11.757-11.757s11.758 5.274 11.758 11.757c-.001 6.484-5.275 11.758-11.758 11.758zm0-19.514c-4.277 0-7.757 3.479-7.757 7.757s3.479 7.758 7.757 7.758 7.758-3.48 7.758-7.758-3.481-7.757-7.758-7.757z"></path>
  <path fill="red" d="M254.288 157.798c0 27.614-22.386 50-50 50h-46.207c-27.614 0-50-22.386-50-50v-46.207c0-27.614 22.386-50 50-50h46.207c27.614 0 50 22.386 50 50v46.207z"></path>
  <path fill="#AA0909" d="M204.288 209.798h-46.207c-28.673 0-52-23.327-52-52v-46.207c0-28.673 23.327-52 52-52h46.207c28.673 0 52 23.327 52 52v46.207c0 28.673-23.328 52-52 52zM158.081 63.591c-26.467 0-48 21.532-48 48v46.207c0 26.468 21.533 48 48 48h46.207c26.467 0 48-21.532 48-48v-46.207c0-26.468-21.533-48-48-48h-46.207z"></path>
  <path fill="#FFF" d="M243.606 154.328c0 23.579-19.115 42.694-42.694 42.694h-39.455c-23.58 0-42.694-19.115-42.694-42.694v-39.455c0-23.579 19.115-42.694 42.694-42.694h39.455c23.58 0 42.694 19.115 42.694 42.694v39.455z"></path>
  <path fill="#AA0909" d="M200.912 199.022h-39.455c-24.645 0-44.694-20.05-44.694-44.694v-39.455c0-24.645 20.05-44.694 44.694-44.694h39.455c24.645 0 44.694 20.05 44.694 44.694v39.455c0 24.645-20.05 44.694-44.694 44.694zM161.457 74.179c-22.439 0-40.694 18.256-40.694 40.694v39.455c0 22.438 18.255 40.694 40.694 40.694h39.455c22.439 0 40.694-18.256 40.694-40.694v-39.455c0-22.438-18.255-40.694-40.694-40.694h-39.455z"></path>
  <circle cx="161.67" cy="134.6" r="9.758" fill="#F8CC00"></circle>
  <path fill="#AA0909" d="M161.669 146.357c-6.483 0-11.757-5.274-11.757-11.758 0-6.482 5.274-11.757 11.757-11.757s11.758 5.274 11.758 11.757c0 6.484-5.274 11.758-11.758 11.758zm0-19.514c-4.277 0-7.757 3.479-7.757 7.757s3.48 7.758 7.757 7.758c4.278 0 7.758-3.48 7.758-7.758s-3.48-7.757-7.758-7.757z"></path>
  <circle cx="142.155" cy="134.6" r="9.758" fill="#F8CC00"></circle>
  <path fill="#AA0909" d="M142.154 146.357c-6.483 0-11.757-5.274-11.757-11.758 0-6.482 5.274-11.757 11.757-11.757s11.758 5.274 11.758 11.757c0 6.484-5.274 11.758-11.758 11.758zm0-19.514c-4.277 0-7.757 3.479-7.757 7.757s3.48 7.758 7.757 7.758c4.278 0 7.758-3.48 7.758-7.758s-3.48-7.757-7.758-7.757z"></path>
  <circle cx="181.184" cy="134.6" r="9.757" fill="#F8CC00"></circle>
  <path fill="#AA0909" d="M181.184 146.357c-6.483 0-11.757-5.274-11.757-11.758 0-6.482 5.274-11.757 11.757-11.757s11.757 5.274 11.757 11.757c0 6.484-5.274 11.758-11.757 11.758zm0-19.514c-4.277 0-7.757 3.479-7.757 7.757s3.479 7.758 7.757 7.758 7.757-3.48 7.757-7.758-3.48-7.757-7.757-7.757z"></path>
  <circle cx="200.698" cy="134.6" r="9.758" fill="#F8CC00"></circle>
  <path fill="#AA0909" d="M200.699 146.357c-6.483 0-11.758-5.274-11.758-11.758 0-6.482 5.274-11.757 11.758-11.757 6.483 0 11.757 5.274 11.757 11.757 0 6.484-5.274 11.758-11.757 11.758zm0-19.514c-4.278 0-7.758 3.479-7.758 7.757s3.48 7.758 7.758 7.758c4.277 0 7.757-3.48 7.757-7.758s-3.48-7.757-7.757-7.757z"></path>
  <circle cx="220.214" cy="134.6" r="9.758" fill="#F8CC00"></circle>
  <path fill="#AA0909" d="M220.214 146.357c-6.483 0-11.758-5.274-11.758-11.758 0-6.482 5.274-11.757 11.758-11.757 6.483 0 11.757 5.274 11.757 11.757 0 6.484-5.274 11.758-11.757 11.758zm0-19.514c-4.278 0-7.758 3.479-7.758 7.757s3.48 7.758 7.758 7.758c4.277 0 7.757-3.48 7.757-7.758s-3.48-7.757-7.757-7.757z"></path>
  <circle cx="161.67" cy="100.983" r="9.758" fill="#F8CC00"></circle>
  <path fill="#AA0909" d="M161.669 112.74c-6.483 0-11.757-5.274-11.757-11.757s5.274-11.758 11.757-11.758 11.758 5.274 11.758 11.758c0 6.483-5.274 11.757-11.758 11.757zm0-19.514c-4.277 0-7.757 3.48-7.757 7.758s3.48 7.757 7.757 7.757c4.278 0 7.758-3.479 7.758-7.757s-3.48-7.758-7.758-7.758z"></path>
  <circle cx="181.184" cy="100.983" r="9.757" fill="#F8CC00"></circle>
  <path fill="#AA0909" d="M181.184 112.74c-6.483 0-11.757-5.274-11.757-11.757s5.274-11.758 11.757-11.758 11.757 5.274 11.757 11.758c0 6.483-5.274 11.757-11.757 11.757zm0-19.514c-4.277 0-7.757 3.48-7.757 7.758s3.479 7.757 7.757 7.757 7.757-3.479 7.757-7.757-3.48-7.758-7.757-7.758z"></path>
  <circle cx="200.698" cy="100.983" r="9.758" fill="#F8CC00"></circle>
  <path fill="#AA0909" d="M200.699 112.74c-6.483 0-11.758-5.274-11.758-11.757s5.274-11.758 11.758-11.758c6.483 0 11.757 5.274 11.757 11.758 0 6.483-5.274 11.757-11.757 11.757zm0-19.514c-4.278 0-7.758 3.48-7.758 7.758s3.48 7.757 7.758 7.757c4.277 0 7.757-3.479 7.757-7.757s-3.48-7.758-7.757-7.758z"></path>
  <circle cx="161.67" cy="168.405" r="9.758" fill="#F8CC00"></circle>
  <path fill="#AA0909" d="M161.669 180.163c-6.483 0-11.757-5.274-11.757-11.758 0-6.482 5.274-11.757 11.757-11.757s11.758 5.274 11.758 11.757c0 6.484-5.274 11.758-11.758 11.758zm0-19.515c-4.277 0-7.757 3.479-7.757 7.757s3.48 7.758 7.757 7.758c4.278 0 7.758-3.48 7.758-7.758s-3.48-7.757-7.758-7.757z"></path>
  <circle cx="181.184" cy="168.405" r="9.757" fill="#F8CC00"></circle>
  <path fill="#AA0909" d="M181.184 180.163c-6.483 0-11.757-5.274-11.757-11.758 0-6.482 5.274-11.757 11.757-11.757s11.757 5.274 11.757 11.757c0 6.484-5.274 11.758-11.757 11.758zm0-19.515c-4.277 0-7.757 3.479-7.757 7.757s3.479 7.758 7.757 7.758 7.757-3.48 7.757-7.758-3.48-7.757-7.757-7.757z"></path>
  <circle cx="200.698" cy="168.405" r="9.758" fill="#F8CC00"></circle>
  <path fill="#AA0909" d="M200.699 180.163c-6.483 0-11.758-5.274-11.758-11.758 0-6.482 5.274-11.757 11.758-11.757 6.483 0 11.757 5.274 11.757 11.757 0 6.484-5.274 11.758-11.757 11.758zm0-19.515c-4.278 0-7.758 3.479-7.758 7.757s3.48 7.758 7.758 7.758c4.277 0 7.757-3.48 7.757-7.758s-3.48-7.757-7.757-7.757z"></path>
  <circle cx="151.912" cy="151.475" r="9.757" fill="#F8CC00"></circle>
  <path fill="#AA0909" d="M151.912 163.231c-6.483 0-11.757-5.274-11.757-11.757s5.274-11.758 11.757-11.758 11.757 5.274 11.757 11.758c0 6.483-5.274 11.757-11.757 11.757zm0-19.514c-4.277 0-7.757 3.48-7.757 7.758s3.48 7.757 7.757 7.757 7.757-3.479 7.757-7.757-3.48-7.758-7.757-7.758z"></path>
  <circle cx="210.456" cy="151.475" r="9.757" fill="#F8CC00"></circle>
  <path fill="#AA0909" d="M210.456 163.231c-6.483 0-11.757-5.274-11.757-11.757s5.274-11.758 11.757-11.758 11.757 5.274 11.757 11.758c0 6.483-5.274 11.757-11.757 11.757zm0-19.514c-4.277 0-7.757 3.48-7.757 7.758s3.48 7.757 7.757 7.757 7.757-3.479 7.757-7.757-3.48-7.758-7.757-7.758z"></path>
  <circle cx="171.427" cy="151.475" r="9.757" fill="#F8CC00"></circle>
  <path fill="#AA0909" d="M171.427 163.231c-6.483 0-11.758-5.274-11.758-11.757s5.274-11.758 11.758-11.758c6.483 0 11.757 5.274 11.757 11.758 0 6.483-5.274 11.757-11.757 11.757zm0-19.514c-4.278 0-7.758 3.48-7.758 7.758s3.48 7.757 7.758 7.757c4.277 0 7.757-3.479 7.757-7.757s-3.479-7.758-7.757-7.758z"></path>
  <circle cx="190.941" cy="151.475" r="9.757" fill="#F8CC00"></circle>
  <path fill="#AA0909" d="M190.941 163.231c-6.483 0-11.757-5.274-11.757-11.757s5.274-11.758 11.757-11.758 11.758 5.274 11.758 11.758c0 6.483-5.275 11.757-11.758 11.757zm0-19.514c-4.277 0-7.757 3.48-7.757 7.758s3.479 7.757 7.757 7.757 7.758-3.479 7.758-7.757-3.48-7.758-7.758-7.758z"></path>
  <circle cx="151.912" cy="117.856" r="9.757" fill="#F8CC00"></circle>
  <path fill="#AA0909" d="M151.912 129.614c-6.483 0-11.757-5.274-11.757-11.758 0-6.482 5.274-11.757 11.757-11.757s11.757 5.274 11.757 11.757c0 6.484-5.274 11.758-11.757 11.758zm0-19.514c-4.277 0-7.757 3.479-7.757 7.757s3.48 7.758 7.757 7.758 7.757-3.48 7.757-7.758-3.48-7.757-7.757-7.757z"></path>
  <circle cx="210.456" cy="117.856" r="9.757" fill="#F8CC00"></circle>
  <path fill="#AA0909" d="M210.456 129.614c-6.483 0-11.757-5.274-11.757-11.758 0-6.482 5.274-11.757 11.757-11.757s11.757 5.274 11.757 11.757c0 6.484-5.274 11.758-11.757 11.758zm0-19.514c-4.277 0-7.757 3.479-7.757 7.757s3.48 7.758 7.757 7.758 7.757-3.48 7.757-7.758-3.48-7.757-7.757-7.757z"></path>
  <circle cx="171.427" cy="117.856" r="9.757" fill="#F8CC00"></circle>
  <path fill="#AA0909" d="M171.427 129.614c-6.483 0-11.758-5.274-11.758-11.758 0-6.482 5.274-11.757 11.758-11.757 6.483 0 11.757 5.274 11.757 11.757 0 6.484-5.274 11.758-11.757 11.758zm0-19.514c-4.278 0-7.758 3.479-7.758 7.757s3.48 7.758 7.758 7.758c4.277 0 7.757-3.48 7.757-7.758s-3.479-7.757-7.757-7.757z"></path>
  <circle cx="190.941" cy="117.856" r="9.757" fill="#F8CC00"></circle>
  <path fill="#AA0909" d="M190.941 129.614c-6.483 0-11.757-5.274-11.757-11.758 0-6.482 5.274-11.757 11.757-11.757s11.758 5.274 11.758 11.757c0 6.484-5.275 11.758-11.758 11.758zm0-19.514c-4.277 0-7.757 3.479-7.757 7.757s3.479 7.758 7.757 7.758 7.758-3.48 7.758-7.758-3.48-7.757-7.758-7.757z"></path>
  <path fill="#F8CC00" d="M178.745 304.277c0 27.614-22.386 50-50 50H82.538c-27.614 0-50-22.386-50-50V258.07c0-27.614 22.386-50 50-50h46.207c27.614 0 50 22.386 50 50v46.207z"></path>
  <path fill="#F8CC00" d="M128.745 356.277H82.538c-28.673 0-52-23.327-52-52V258.07c0-28.673 23.327-52 52-52h46.207c28.673 0 52 23.327 52 52v46.207c0 28.673-23.328 52-52 52zM82.538 210.07c-26.467 0-48 21.532-48 48v46.207c0 26.468 21.533 48 48 48h46.207c26.467 0 48-21.532 48-48V258.07c0-26.468-21.533-48-48-48H82.538z"></path>
  <path fill="#FFF" d="M168.063 300.902c0 23.579-19.115 42.694-42.694 42.694H85.914c-23.58 0-42.694-19.115-42.694-42.694v-39.455c0-23.579 19.115-42.694 42.694-42.694h39.455c23.58 0 42.694 19.115 42.694 42.694v39.455z"></path>
  <path fill="#AA0909" d="M125.369 345.597H85.914c-24.645 0-44.694-20.05-44.694-44.694v-39.455c0-24.645 20.05-44.694 44.694-44.694h39.455c24.645 0 44.694 20.05 44.694 44.694v39.455c0 24.644-20.05 44.694-44.694 44.694zM85.914 220.753c-22.439 0-40.694 18.256-40.694 40.694v39.455c0 22.438 18.255 40.694 40.694 40.694h39.455c22.439 0 40.694-18.256 40.694-40.694v-39.455c0-22.438-18.255-40.694-40.694-40.694H85.914z"></path>
  <path fill="red" d="M144.112 293.332c0 14.532-11.78 26.312-26.312 26.312H93.483c-14.532 0-26.312-11.78-26.312-26.312v-24.316c0-14.532 11.78-26.312 26.312-26.312h24.316c14.532 0 26.312 11.78 26.312 26.312v24.316z"></path>
  <path fill="#AA0909" d="M117.799 321.645H93.483c-15.611 0-28.312-12.701-28.312-28.312v-24.316c0-15.611 12.701-28.312 28.312-28.312h24.316c15.611 0 28.312 12.701 28.312 28.312v24.316c.001 15.61-12.7 28.312-28.312 28.312zm-24.316-76.942c-13.406 0-24.312 10.906-24.312 24.312v24.316c0 13.406 10.907 24.312 24.312 24.312h24.316c13.406 0 24.312-10.906 24.312-24.312v-24.316c0-13.406-10.907-24.312-24.312-24.312H93.483z"></path>
  <path d="M75.697 313.754a1.034 1.034 0 0 1-.953-1.431c.212-.51 21.686-51.099 62.101-62.017a1.032 1.032 0 1 1 .539 1.995c-39.428 10.651-60.524 60.316-60.732 60.817-.166.397-.55.636-.955.636zm29.944 7.11a1.033 1.033 0 0 1-.96-1.411c.128-.327 3.217-8.106 9.496-16.78 5.826-8.048 15.589-18.336 29.019-21.645a1.033 1.033 0 1 1 .494 2.006c-24.606 6.062-36.963 36.864-37.085 37.175a1.038 1.038 0 0 1-.964.655zm-38.47-42.087a1.034 1.034 0 0 1-1.001-1.292c.07-.271 7.327-27.101 35.609-35.77a1.034 1.034 0 0 1 .606 1.975c-27.191 8.335-34.148 34.054-34.215 34.312-.12.467-.54.775-.999.775zm.426 20.304a1.033 1.033 0 0 1-.955-1.426c.188-.456 19.177-45.694 57.655-55.081a1.033 1.033 0 0 1 .489 2.008c-37.446 9.134-56.049 53.412-56.233 53.858-.164.4-.55.641-.956.641zm21.551 21.235a1.035 1.035 0 0 1-.982-1.355c.156-.477 16.032-47.713 55.785-53.989a1.034 1.034 0 0 1 .323 2.041c-38.518 6.081-53.991 52.126-54.143 52.591a1.036 1.036 0 0 1-.983.712zm33.008 0a1.032 1.032 0 0 1-.975-1.374c.252-.723 6.362-17.764 22.154-23.503a1.03 1.03 0 0 1 1.324.618 1.032 1.032 0 0 1-.618 1.323c-14.879 5.408-20.851 22.075-20.91 22.243a1.032 1.032 0 0 1-.975.693z"></path>
  <path fill="#F8CC00" d="M404.034 158.703c0 27.614-22.386 50-50 50h-46.207c-27.614 0-50-22.386-50-50v-46.207c0-27.614 22.386-50 50-50h46.207c27.614 0 50 22.386 50 50v46.207z"></path>
  <path fill="#F8CC00" d="M354.034 210.703h-46.207c-28.673 0-52-23.327-52-52v-46.207c0-28.673 23.327-52 52-52h46.207c28.673 0 52 23.327 52 52v46.207c0 28.673-23.327 52-52 52zM307.827 64.496c-26.467 0-48 21.532-48 48v46.207c0 26.468 21.533 48 48 48h46.207c26.467 0 48-21.532 48-48v-46.207c0-26.468-21.533-48-48-48h-46.207z"></path>
  <path fill="#FFF" d="M393.352 155.328c0 23.579-19.115 42.694-42.694 42.694h-39.455c-23.58 0-42.694-19.115-42.694-42.694v-39.455c0-23.579 19.115-42.694 42.694-42.694h39.455c23.58 0 42.694 19.115 42.694 42.694v39.455z"></path>
  <path fill="#AA0909" d="M350.658 200.022h-39.455c-24.645 0-44.694-20.05-44.694-44.694v-39.455c0-24.645 20.05-44.694 44.694-44.694h39.455c24.645 0 44.694 20.05 44.694 44.694v39.455c0 24.645-20.05 44.694-44.694 44.694zM311.203 75.179c-22.439 0-40.694 18.256-40.694 40.694v39.455c0 22.438 18.255 40.694 40.694 40.694h39.455c22.439 0 40.694-18.256 40.694-40.694v-39.455c0-22.438-18.255-40.694-40.694-40.694h-39.455z"></path>
  <path fill="#F8CC00" d="M369.401 147.758c0 14.532-11.78 26.312-26.312 26.312h-24.316c-14.532 0-26.312-11.78-26.312-26.312v-24.316c0-14.532 11.78-26.312 26.312-26.312h24.316c14.532 0 26.312 11.78 26.312 26.312v24.316z"></path>
  <path fill="#F8CC00" d="M343.088 176.07h-24.316c-15.611 0-28.312-12.701-28.312-28.312v-24.316c0-15.611 12.701-28.312 28.312-28.312h24.316c15.611 0 28.312 12.701 28.312 28.312v24.316c.001 15.611-12.7 28.312-28.312 28.312zm-24.316-76.941c-13.406 0-24.312 10.906-24.312 24.312v24.316c0 13.406 10.907 24.312 24.312 24.312h24.316c13.406 0 24.312-10.906 24.312-24.312v-24.316c0-13.406-10.907-24.312-24.312-24.312h-24.316z"></path>
  <path d="M300.986 168.18a1.034 1.034 0 0 1-.953-1.431c.212-.51 21.686-51.099 62.101-62.017a1.034 1.034 0 0 1 .539 1.995c-39.428 10.651-60.524 60.316-60.732 60.817-.166.396-.55.636-.955.636zm29.944 7.11a1.033 1.033 0 0 1-.96-1.411c.128-.327 3.217-8.106 9.496-16.78 5.826-8.048 15.589-18.336 29.019-21.645a1.032 1.032 0 1 1 .494 2.006c-24.606 6.062-36.963 36.864-37.085 37.175a1.038 1.038 0 0 1-.964.655zm-38.47-42.087a1.034 1.034 0 0 1-1.001-1.292c.07-.271 7.327-27.101 35.609-35.77a1.034 1.034 0 0 1 .606 1.975c-27.191 8.335-34.148 34.054-34.215 34.312-.12.467-.54.775-.999.775zm.426 20.304a1.033 1.033 0 0 1-.955-1.426c.188-.456 19.177-45.694 57.655-55.081a1.033 1.033 0 0 1 .489 2.008c-37.446 9.134-56.049 53.412-56.233 53.858-.164.4-.55.641-.956.641zm21.551 21.235a1.035 1.035 0 0 1-.982-1.355c.156-.477 16.032-47.713 55.785-53.989a1.034 1.034 0 0 1 .323 2.041c-38.518 6.081-53.991 52.126-54.143 52.591a1.036 1.036 0 0 1-.983.712zm33.008 0a1.032 1.032 0 0 1-.975-1.374c.252-.723 6.362-17.764 22.154-23.503a1.03 1.03 0 0 1 1.324.618 1.032 1.032 0 0 1-.618 1.323c-14.879 5.408-20.851 22.075-20.91 22.243a1.032 1.032 0 0 1-.975.693zM329.391 304.277c0 27.614-22.386 50-50 50h-46.207c-27.614 0-50-22.386-50-50V258.07c0-27.614 22.386-50 50-50h46.207c27.614 0 50 22.386 50 50v46.207z"></path>
  <path d="M279.391 356.277h-46.207c-28.673 0-52-23.327-52-52V258.07c0-28.673 23.327-52 52-52h46.207c28.673 0 52 23.327 52 52v46.207c0 28.673-23.327 52-52 52zM233.184 210.07c-26.467 0-48 21.532-48 48v46.207c0 26.468 21.533 48 48 48h46.207c26.467 0 48-21.532 48-48V258.07c0-26.468-21.533-48-48-48h-46.207z"></path>
  <path fill="#FFF" d="M318.709 300.902c0 23.579-19.115 42.694-42.694 42.694H236.56c-23.58 0-42.694-19.115-42.694-42.694v-39.455c0-23.579 19.115-42.694 42.694-42.694h39.455c23.58 0 42.694 19.115 42.694 42.694v39.455z"></path>
  <path fill="#AA0909" d="M276.015 345.597H236.56c-24.645 0-44.694-20.05-44.694-44.694v-39.455c0-24.645 20.05-44.694 44.694-44.694h39.455c24.645 0 44.694 20.05 44.694 44.694v39.455c0 24.644-20.049 44.694-44.694 44.694zM236.56 220.753c-22.439 0-40.694 18.256-40.694 40.694v39.455c0 22.438 18.255 40.694 40.694 40.694h39.455c22.439 0 40.694-18.256 40.694-40.694v-39.455c0-22.438-18.255-40.694-40.694-40.694H236.56z"></path>
  <path fill="#F8CC00" d="M294.758 293.332c0 14.532-11.78 26.312-26.312 26.312H244.13c-14.532 0-26.312-11.78-26.312-26.312v-24.316c0-14.532 11.78-26.312 26.312-26.312h24.316c14.532 0 26.312 11.78 26.312 26.312v24.316z"></path>
  <path fill="#F8CC00" d="M268.446 321.645H244.13c-15.611 0-28.312-12.701-28.312-28.312v-24.316c0-15.611 12.701-28.312 28.312-28.312h24.316c15.611 0 28.312 12.701 28.312 28.312v24.316c0 15.61-12.701 28.312-28.312 28.312zm-24.317-76.942c-13.406 0-24.312 10.906-24.312 24.312v24.316c0 13.406 10.907 24.312 24.312 24.312h24.316c13.406 0 24.312-10.906 24.312-24.312v-24.316c0-13.406-10.907-24.312-24.312-24.312h-24.316z"></path>
  <path d="M226.344 313.754a1.034 1.034 0 0 1-.953-1.431c.212-.51 21.686-51.099 62.101-62.017a1.032 1.032 0 1 1 .539 1.995c-39.428 10.651-60.524 60.316-60.732 60.817-.166.397-.55.636-.955.636zm29.943 7.11a1.033 1.033 0 0 1-.96-1.411c.128-.327 3.217-8.106 9.496-16.78 5.826-8.048 15.589-18.336 29.019-21.645a1.033 1.033 0 1 1 .494 2.006c-24.606 6.062-36.963 36.864-37.085 37.175a1.037 1.037 0 0 1-.964.655zm-38.47-42.087a1.034 1.034 0 0 1-1.001-1.292c.07-.271 7.327-27.101 35.609-35.77a1.034 1.034 0 0 1 .606 1.975c-27.191 8.335-34.148 34.054-34.215 34.312-.12.467-.539.775-.999.775zm.426 20.304a1.033 1.033 0 0 1-.955-1.426c.188-.456 19.177-45.694 57.655-55.081a1.033 1.033 0 0 1 .489 2.008c-37.446 9.134-56.049 53.412-56.233 53.858-.164.4-.55.641-.956.641zm21.551 21.235a1.035 1.035 0 0 1-.982-1.355c.156-.477 16.032-47.713 55.785-53.989a1.034 1.034 0 0 1 .323 2.041c-38.518 6.081-53.991 52.126-54.143 52.591a1.035 1.035 0 0 1-.983.712zm33.008 0a1.032 1.032 0 0 1-.975-1.374c.252-.723 6.362-17.764 22.154-23.503a1.03 1.03 0 0 1 1.324.618 1.032 1.032 0 0 1-.618 1.323c-14.879 5.408-20.851 22.075-20.91 22.243a1.031 1.031 0 0 1-.975.693z"></path>
  <path fill="red" d="M256.288 319.645H244.13c-14.532 0-26.312-11.78-26.312-26.312v-24.316c0-14.532 11.78-26.312 26.312-26.312h12.47"></path>
  <path fill="#AA0909" d="M256.288 321.645H244.13c-15.611 0-28.312-12.701-28.312-28.312v-24.316c0-15.611 12.701-28.312 28.312-28.312h12.47a2 2 0 0 1 0 4h-12.471c-13.406 0-24.312 10.906-24.312 24.312v24.316c0 13.406 10.907 24.312 24.312 24.312h12.158a2 2 0 0 1 .001 4z"></path>
  <path d="M228.912 316.013a1.035 1.035 0 0 1-1.016-1.223c4.894-26.257.04-66.701-.01-67.107a1.033 1.033 0 1 1 2.051-.25c.05.408 4.942 41.169-.01 67.736a1.034 1.034 0 0 1-1.015.844zm13.097 4.371a1.035 1.035 0 0 1-1.021-1.202c4.9-29.694.042-75.427-.007-75.885a1.034 1.034 0 0 1 2.054-.223c.05.461 4.938 46.47-.007 76.443a1.037 1.037 0 0 1-1.019.867zm12.067 0a1.035 1.035 0 0 1-1.021-1.202c4.9-29.694.042-75.427-.007-75.885a1.034 1.034 0 0 1 2.054-.223c.05.461 4.938 46.47-.007 76.443a1.037 1.037 0 0 1-1.019.867z"></path>
</svg>
