<svg xmlns="http://www.w3.org/2000/svg" viewBox="0 0 64 64" id="tobiko">
  <path fill="#db572e" d="M61.672,17.632A3,3,0,0,1,61.23,21a2.994,2.994,0,0,1-.57,4.5,3,3,0,0,1,0,5,3,3,0,0,1,0,5,3,3,0,0,1,0,5,2.994,2.994,0,0,1,.57,4.5,2.982,2.982,0,0,1,0,4A2.965,2.965,0,0,1,62,51a3,3,0,0,1-3,3,2.93,2.93,0,0,1-1.11-.22A2.985,2.985,0,0,1,55,56a3.266,3.266,0,0,1-.7-.08,2.984,2.984,0,0,1-4.49.12,2.988,2.988,0,0,1-5,1,3,3,0,0,1-5.31.62,3,3,0,0,1-5,0,3,3,0,0,1-5,0,3,3,0,0,1-5,0,3,3,0,0,1-5.31-.62,2.988,2.988,0,0,1-5-1,2.984,2.984,0,0,1-4.49-.12A3.266,3.266,0,0,1,9,56a2.985,2.985,0,0,1-2.89-2.22A2.93,2.93,0,0,1,5,54a3,3,0,0,1-3-3,2.965,2.965,0,0,1,.77-2,2.982,2.982,0,0,1,0-4,2.994,2.994,0,0,1,.57-4.5,3,3,0,0,1,0-5,3,3,0,0,1,0-5,3,3,0,0,1,0-5A2.994,2.994,0,0,1,2.77,21a3,3,0,0,1-.442-3.368Z"></path>
  <path fill="#ed704a" d="M59.345,18a2.782,2.782,0,0,1,.3,1.269,2.752,2.752,0,0,1-.714,1.855,2.776,2.776,0,0,1-.529,4.173,2.785,2.785,0,0,1,0,4.638,2.784,2.784,0,0,1,0,4.637,2.784,2.784,0,0,1,0,4.637,2.777,2.777,0,0,1,.529,4.174,2.767,2.767,0,0,1,0,3.71,2.778,2.778,0,0,1-2.069,4.637,2.713,2.713,0,0,1-1.029-.2,2.768,2.768,0,0,1-2.681,2.059,3,3,0,0,1-.649-.074,2.766,2.766,0,0,1-4.164.111,2.772,2.772,0,0,1-4.638.928,2.78,2.78,0,0,1-4.925.575,2.784,2.784,0,0,1-4.637,0,2.784,2.784,0,0,1-4.637,0,2.785,2.785,0,0,1-4.638,0,2.78,2.78,0,0,1-4.925-.575,2.771,2.771,0,0,1-4.637-.928,2.766,2.766,0,0,1-4.164-.111,3,3,0,0,1-.65.074,2.767,2.767,0,0,1-2.68-2.059,2.714,2.714,0,0,1-1.03.2,2.778,2.778,0,0,1-2.068-4.637,2.767,2.767,0,0,1,0-3.71,2.777,2.777,0,0,1,.529-4.174,2.784,2.784,0,0,1,0-4.637,2.784,2.784,0,0,1,0-4.637,2.785,2.785,0,0,1,0-4.638,2.776,2.776,0,0,1-.529-4.173A2.752,2.752,0,0,1,4,19.269,2.782,2.782,0,0,1,4.3,18Z"></path>
  <circle cx="10" cy="30" r="2" fill="#db572e"></circle>
  <circle cx="9" cy="39" r="2" fill="#c64320"></circle>
  <circle cx="18" cy="45" r="2" fill="#c64320"></circle>
  <circle cx="10" cy="50" r="2" fill="#c64320"></circle>
  <circle cx="24" cy="33" r="2" fill="#c64320"></circle>
  <circle cx="17" cy="36" r="2" fill="#e03a19"></circle>
  <circle cx="29" cy="42" r="2" fill="#db572e"></circle>
  <circle cx="27" cy="51" r="2" fill="#e03a19"></circle>
  <circle cx="32" cy="29" r="2" fill="#e03a19"></circle>
  <circle cx="38" cy="37" r="2" fill="#c64320"></circle>
  <circle cx="37" cy="45" r="2" fill="#c64320"></circle>
  <circle cx="43" cy="52" r="2" fill="#e03a19"></circle>
  <circle cx="47" cy="31" r="2" fill="#e03a19"></circle>
  <circle cx="46" cy="40" r="2" fill="#db572e"></circle>
  <circle cx="55" cy="48" r="2" fill="#e03a19"></circle>
  <circle cx="55" cy="40" r="2" fill="#c64320"></circle>
  <circle cx="55" cy="31" r="2" fill="#e03a19"></circle>
  <ellipse cx="32" cy="16" fill="#d1d1d1" rx="30" ry="11"></ellipse>
  <ellipse cx="32" cy="16" fill="#fff" rx="28" ry="9"></ellipse>
  <ellipse cx="32" cy="16" fill="#f9c850" rx="18" ry="6"></ellipse>
  <path fill="#85bc73" d="M35,14l1.274-3.823C34.9,10.066,33.476,10,32,10a48.816,48.816,0,0,0-8.439.7L27,15Z"></path>
  <path fill="#e1858b" d="M14,16c0,2.479,4.513,4.607,10.949,5.521A5.267,5.267,0,0,0,21,17l.039-.039a3.281,3.281,0,0,0-.352-4.945l-.652-.49C16.34,12.625,14,14.22,14,16Z"></path>
  <path fill="#497c3e" d="M41.541,21.081,40,18H28l.649,3.892c1.087.068,2.2.108,3.351.108A47.3,47.3,0,0,0,41.541,21.081Z"></path>
  <path fill="#578e4a" d="M32,22c.34,0,.665-.018,1-.024V18H28l.649,3.892C29.736,21.96,30.853,22,32,22Z"></path>
  <path fill="#a03232" d="M50,16c0-2.251-3.725-4.211-9.229-5.237A18.241,18.241,0,0,0,38,20.4v1.248C44.986,20.827,50,18.611,50,16Z"></path>
  <path fill="#bf4747" d="M40,20.4v.961c5.92-.982,10-3.01,10-5.364,0-2-2.94-3.765-7.449-4.855A18.219,18.219,0,0,0,40,20.4Z"></path>
  <path fill="#a03232" d="M50,16c0-1.585-1.853-3.022-4.865-4.093A18.165,18.165,0,0,0,43,20.4v.333C47.253,19.641,50,17.93,50,16Z"></path>
  <path fill="#bf4747" d="M46.793,12.6a18.113,18.113,0,0,0-1.784,7.531C48.1,19.058,50,17.606,50,16,50,14.734,48.8,13.567,46.793,12.6Z"></path>
  <path d="M32,4C14.617,4,1,9.271,1,16a5.088,5.088,0,0,0,.276,1.615A3.828,3.828,0,0,0,1.538,21a4,4,0,0,0,.339,4.5,4,4,0,0,0,0,5,4,4,0,0,0,0,5,4,4,0,0,0,0,5A4,4,0,0,0,1.538,45a3.986,3.986,0,0,0,0,4A3.97,3.97,0,0,0,1,51a4.025,4.025,0,0,0,4.521,3.965,3.966,3.966,0,0,0,3.817,2.02,4.094,4.094,0,0,0,4.558.535,3.991,3.991,0,0,0,5,1,4,4,0,0,0,5.6.6,4.131,4.131,0,0,0,5,0,4.131,4.131,0,0,0,5,0,4.131,4.131,0,0,0,5,0,4,4,0,0,0,5.6-.6,3.991,3.991,0,0,0,5-1,4.094,4.094,0,0,0,4.558-.535,3.962,3.962,0,0,0,3.817-2.02A4,4,0,0,0,62.462,49a3.986,3.986,0,0,0,0-4,4,4,0,0,0-.339-4.5,4,4,0,0,0,0-5,4,4,0,0,0,0-5,4,4,0,0,0,0-5,4,4,0,0,0,.339-4.5,3.828,3.828,0,0,0,.262-3.385A5.088,5.088,0,0,0,63,16C63,9.271,49.383,4,32,4Zm0,2c17.347,0,29,5.171,29,10S49.347,26,32,26,3,20.829,3,16,14.653,6,32,6Zm1,23a1,1,0,1,1-1-1A1,1,0,0,1,33,29Zm27.1-2.668a2,2,0,0,1,0,3.336,1,1,0,0,0,0,1.664,2,2,0,0,1,0,3.336,1,1,0,0,0,0,1.664,2,2,0,0,1,0,3.336,1,1,0,0,0,0,1.664,1.993,1.993,0,0,1,.383,3,1,1,0,0,0,0,1.342,1.981,1.981,0,0,1,0,2.658,1,1,0,0,0,0,1.342A1.977,1.977,0,0,1,61,51a2,2,0,0,1-2,2,1.922,1.922,0,0,1-.731-.146,1,1,0,0,0-1.346.669A1.991,1.991,0,0,1,55,55a2.29,2.29,0,0,1-.489-.058,1.012,1.012,0,0,0-.986.345,2.039,2.039,0,0,1-2.978.078.987.987,0,0,0-.932-.3,1,1,0,0,0-.745.637A1.993,1.993,0,0,1,47,57a1.948,1.948,0,0,1-1.453-.635.984.984,0,0,0-.932-.3,1,1,0,0,0-.745.637,2,2,0,0,1-3.538.408,1.039,1.039,0,0,0-1.664,0,2,2,0,0,1-3.336,0,1.039,1.039,0,0,0-1.664,0,2,2,0,0,1-3.336,0,1.039,1.039,0,0,0-1.664,0,2,2,0,0,1-3.336,0,1.039,1.039,0,0,0-1.664,0A2,2,0,0,1,20.13,56.7a1,1,0,0,0-1.677-.332A1.948,1.948,0,0,1,17,57a1.993,1.993,0,0,1-1.87-1.3,1,1,0,0,0-1.677-.332,2.039,2.039,0,0,1-2.978-.078,1.012,1.012,0,0,0-.986-.345A2.29,2.29,0,0,1,9,55a1.991,1.991,0,0,1-1.923-1.477,1,1,0,0,0-1.346-.669A1.922,1.922,0,0,1,5,53a2,2,0,0,1-2-2,1.977,1.977,0,0,1,.512-1.329,1,1,0,0,0,0-1.342,1.981,1.981,0,0,1,0-2.658,1,1,0,0,0,0-1.342,1.993,1.993,0,0,1,.383-3,1,1,0,0,0,0-1.664,2,2,0,0,1,0-3.336,1,1,0,0,0,0-1.664,2,2,0,0,1,0-3.336,1,1,0,0,0,0-1.664,2,2,0,0,1,0-3.336,1,1,0,0,0,0-1.664,1.993,1.993,0,0,1-.383-3,1,1,0,0,0,.252-.64C8.235,24.87,17.729,27.57,29.2,27.951A2.955,2.955,0,0,0,29,29a3,3,0,0,0,6,0,2.955,2.955,0,0,0-.2-1.049c11.471-.381,20.965-3.081,25.436-6.92a1,1,0,0,0,.252.64,1.993,1.993,0,0,1-.383,3,1,1,0,0,0,0,1.664Z"></path>
  <path d="M32 23c9.211 0 19-2.453 19-7S41.211 9 32 9s-19 2.453-19 7S22.789 23 32 23zm-9.435-6.474A4.258 4.258 0 0023 14.641a4.3 4.3 0 00-.911-2.63c.341-.078.7-.151 1.061-.222l3.069 3.836A1 1 0 0027 16a1.032 1.032 0 00.124-.008l8-1a1 1 0 00.824-.676l1.026-3.078c.767.074 1.51.16 2.211.264A19.236 19.236 0 0037.314 17H28a1 1 0 00-.986 1.164l.439 2.636q-.841-.073-1.634-.171A6.324 6.324 0 0022.565 16.526zM37.053 19c-.034.466-.053.934-.053 1.4v.357c-.954.093-1.95.165-3 .2V19zM29.5 20.937L29.181 19H32v2C31.136 21 30.311 20.974 29.5 20.937zM49 16c0 1.574-3.679 3.615-10 4.525V20.4a17.239 17.239 0 012.266-8.527C46.184 12.9 49 14.626 49 16zM34.918 11.085l-.667 2-6.819.852-2.013-2.516A49.6 49.6 0 0132 11C33.015 11 33.98 11.034 34.918 11.085zm-15.08 1.543l.249.187A2.294 2.294 0 0121 14.641a2.331 2.331 0 01-.707 1.652 1 1 0 00.465 1.677 4.3 4.3 0 012.822 2.322C18.133 19.3 15 17.452 15 16 15 14.924 16.73 13.631 19.838 12.628zM10 27a3 3 0 103 3A3 3 0 0010 27zm0 4a1 1 0 111-1A1 1 0 0110 31zM12 39a3 3 0 10-3 3A3 3 0 0012 39zM8 39a1 1 0 111 1A1 1 0 018 39zM18 42a3 3 0 103 3A3 3 0 0018 42zm0 4a1 1 0 111-1A1 1 0 0118 46zM10 47a3 3 0 103 3A3 3 0 0010 47zm0 4a1 1 0 111-1A1 1 0 0110 51zM27 33a3 3 0 10-3 3A3 3 0 0027 33zm-4 0a1 1 0 111 1A1 1 0 0123 33zM20 36a3 3 0 10-3 3A3 3 0 0020 36zm-4 0a1 1 0 111 1A1 1 0 0116 36zM29 39a3 3 0 103 3A3 3 0 0029 39zm0 4a1 1 0 111-1A1 1 0 0129 43zM27 48a3 3 0 103 3A3 3 0 0027 48zm0 4a1 1 0 111-1A1 1 0 0127 52zM38 40a3 3 0 10-3-3A3 3 0 0038 40zm0-4a1 1 0 11-1 1A1 1 0 0138 36zM37 42a3 3 0 103 3A3 3 0 0037 42zm0 4a1 1 0 111-1A1 1 0 0137 46zM43 49a3 3 0 103 3A3 3 0 0043 49zm0 4a1 1 0 111-1A1 1 0 0143 53zM47 28a3 3 0 103 3A3 3 0 0047 28zm0 4a1 1 0 111-1A1 1 0 0147 32zM46 37a3 3 0 103 3A3 3 0 0046 37zm0 4a1 1 0 111-1A1 1 0 0146 41zM55 45a3 3 0 103 3A3 3 0 0055 45zm0 4a1 1 0 111-1A1 1 0 0155 49zM55 37a3 3 0 103 3A3 3 0 0055 37zm0 4a1 1 0 111-1A1 1 0 0155 41zM55 28a3 3 0 103 3A3 3 0 0055 28zm0 4a1 1 0 111-1A1 1 0 0155 32z"></path>
</svg>
